<svg id="visual" viewBox="0 0 960 540" width="960" height="540" xmlns="http://www.w3.org/2000/svg" xmlns:xlink="http://www.w3.org/1999/xlink" version="1.1"><rect x="0" y="0" width="960" height="540" fill="#002233"></rect><path d="M0 397L26.7 375.5C53.3 354 106.7 311 160 309.5C213.3 308 266.7 348 320 371C373.3 394 426.7 400 480 380.2C533.3 360.3 586.7 314.7 640 313.3C693.3 312 746.7 355 800 353.8C853.3 352.7 906.7 307.3 933.3 284.7L960 262L960 541L933.3 541C906.7 541 853.3 541 800 541C746.7 541 693.3 541 640 541C586.7 541 533.3 541 480 541C426.7 541 373.3 541 320 541C266.7 541 213.3 541 160 541C106.7 541 53.3 541 26.7 541L0 541Z" fill="#446da9" stroke-linecap="round" stroke-linejoin="miter"></path></svg>